<svg width="52" height="66" viewBox="0 0 52 66" fill="none" xmlns="http://www.w3.org/2000/svg">
<g clip-path="url(#clip0_3499_827)">
<path d="M48.0546 102.194H50.464C50.464 73.5348 37.815 42.8075 15.8298 17.5462L14.0228 19.0234C35.7068 43.9893 48.0546 74.2734 48.0546 102.194Z" fill="#F9F8FC"/>
<path d="M4.38594 14.2965C7.69878 18.8761 15.3785 18.8761 15.3785 18.8761C15.3785 18.8761 17.7879 11.7852 14.475 7.20563C11.1622 2.62608 6.34353 0.705629 3.48244 2.62608C0.771942 4.69426 1.0731 9.71699 4.38594 14.2965Z" fill="#F9F8FC"/>
<path d="M15.9799 19.6143L16.1304 19.0234C16.281 18.728 18.5398 11.3416 15.0764 6.61433C11.6129 1.73932 6.19194 -0.328857 3.02969 1.88705C1.52386 2.92115 0.620358 4.98933 0.921524 7.50069C1.07211 9.86433 2.27678 12.3757 3.93319 14.5916C7.39661 19.3189 15.2269 19.4666 15.5281 19.4666H15.9799V19.6143ZM5.89077 2.62569C8.30011 2.62569 11.4624 4.39842 13.7211 7.50069C16.1304 10.8984 15.2269 16.0689 14.6246 17.8416C12.8176 17.6939 7.39661 17.103 4.98727 13.7052C3.48144 11.6371 2.57794 9.27342 2.42736 7.35296C2.27677 5.58024 2.72852 3.95524 3.93319 3.2166C4.38494 2.77342 5.13786 2.62569 5.89077 2.62569Z" fill="#F9F8FC"/>
<path d="M24.714 58.3189C30.5868 61.2734 38.7183 56.9894 38.7183 56.9894C38.7183 56.9894 37.0618 48.2735 31.0385 45.3189C25.0152 42.3644 18.8413 43.103 17.0342 46.6485C15.2272 50.1939 18.6907 55.3644 24.714 58.3189Z" fill="#F9F8FC"/>
<path d="M29.5316 60.387C34.3502 60.387 38.8677 58.0233 39.1689 58.0233L39.7712 57.8756L39.6207 57.2847C39.6207 56.9892 37.8137 48.1256 31.4892 45.0233C25.0141 41.9211 18.2378 42.6597 16.4308 46.6483C14.3226 50.637 17.9367 56.2506 24.4117 59.2051C25.9176 60.0915 27.8752 60.387 29.5316 60.387ZM37.8137 56.8415C36.0067 57.7279 29.8327 60.0915 25.0141 57.8756C19.4425 55.3642 16.1296 50.3415 17.7861 47.2392C19.2919 44.137 25.1646 43.8415 30.7362 46.3529C35.4043 48.5688 37.3619 54.7733 37.8137 56.8415Z" fill="#F9F8FC"/>
<path d="M36.4581 43.2508C34.6511 49.4554 40.2227 56.5463 40.2227 56.5463C40.2227 56.5463 48.8059 53.444 50.6129 47.2395C52.4199 41.0349 50.7635 34.9781 46.8484 33.944C43.0838 32.9099 38.2651 37.0463 36.4581 43.2508Z" fill="#F9F8FC"/>
<path d="M39.6218 57.728L40.2242 57.5802C40.5253 57.4325 49.1086 54.3302 51.2168 47.6825C52.1203 44.5802 52.2708 41.3302 51.5179 38.5234C50.765 35.7166 49.1086 33.7962 47.0004 33.2052C44.7417 32.6143 42.4829 33.353 40.3748 35.2734C38.2666 37.0462 36.6102 39.853 35.7067 43.103C33.5985 49.603 39.1701 56.8416 39.4713 57.1371L39.6218 57.728ZM45.344 34.6825C45.6452 34.6825 46.0969 34.6825 46.3981 34.8302C48.0545 35.4212 49.2592 36.8984 49.7109 38.9666C50.3133 41.3302 50.3133 44.2848 49.4098 47.2393C47.9039 52.1143 42.0312 55.0689 40.0736 55.8075C39.0195 54.1825 35.4055 48.5689 36.9113 43.5462C37.8148 40.5916 39.3207 38.0802 41.1277 36.4552C42.7841 35.2734 43.9888 34.6825 45.344 34.6825Z" fill="#F9F8FC"/>
<path d="M13.8721 38.0802C19.8954 39.7052 26.521 34.6825 26.521 34.6825C26.521 34.6825 23.5094 26.853 17.6366 25.228C11.7639 23.603 6.04173 25.0803 4.98765 28.6257C3.93357 32.1712 8.1499 36.4552 13.8721 38.0802Z" fill="#F9F8FC"/>
<path d="M16.7326 39.4094C22.1536 39.4094 26.9722 35.7162 27.2734 35.5685L27.8757 35.2731L27.7251 34.6821C27.5746 34.3867 24.5629 26.4094 18.2384 24.7844C15.2267 23.898 12.0645 23.8981 9.65514 24.6367C7.09523 25.3753 5.13765 26.8526 4.6859 28.7731C3.63181 32.7617 7.69756 37.3412 14.1726 39.114C14.775 39.2617 15.8291 39.4094 16.7326 39.4094ZM25.7676 34.6821C24.1111 35.7162 18.8407 38.8185 14.4738 37.6367C9.05281 36.1594 5.13765 32.1708 6.04115 29.2162C6.34232 27.739 7.84815 26.7049 9.95631 26.114C12.2151 25.5231 14.9256 25.523 17.7866 26.2617C22.3041 27.5912 24.8641 32.9094 25.7676 34.6821Z" fill="#F9F8FC"/>
<path d="M22.4554 22.7166C21.7025 28.7734 27.8764 34.3871 27.8764 34.3871C27.8764 34.3871 35.1044 30.2507 35.8573 24.1939C36.6103 18.1371 34.2009 12.8189 30.4363 12.5234C26.6718 12.0802 23.0577 16.6598 22.4554 22.7166Z" fill="#F9F8FC"/>
<path d="M27.7238 35.2733L28.3261 34.9779C28.6273 34.8301 36.0058 30.546 36.7588 24.1938C37.5117 17.6938 34.9518 12.2278 30.5849 11.6369C26.3685 11.046 22.4534 15.7733 21.7004 22.421C20.9475 28.7733 27.1214 34.3869 27.4226 34.8301L27.7238 35.2733ZM29.8319 13.2619H30.1331C33.2954 13.5574 35.5541 18.5801 34.9518 24.046C34.3494 28.6256 29.5308 32.3188 27.8744 33.3529C26.5191 31.8756 22.4534 27.5915 23.0557 22.7165C23.8086 17.3983 26.6697 13.2619 29.8319 13.2619Z" fill="#F9F8FC"/>
</g>
<defs>
<clipPath id="clip0_3499_827">
<rect width="52" height="66" fill="white" transform="matrix(-1 0 0 1 52 0)"/>
</clipPath>
</defs>
</svg>
