<svg width="70" height="70" viewBox="0 0 70 70" fill="none" xmlns="http://www.w3.org/2000/svg">
<path d="M0 35C0 15.67 15.67 0 35 0C54.33 0 70 15.67 70 35C70 54.33 54.33 70 35 70C15.67 70 0 54.33 0 35Z" fill="#9C91C5"/>
<path d="M29.7119 38.4803C29.7119 36.6806 29.7119 32.9358 29.7119 32.3544C29.7119 31.773 30.2597 31.6968 30.5336 31.7314H39.8814L49.2291 31.7314C49.503 31.6968 50.0508 31.773 50.0508 32.3544V38.4803M29.7119 38.4803C28.7849 38.4803 28.0303 39.1746 27.6167 39.9134M29.7119 38.4803H31.339M50.0508 38.4803L39.8814 38.4803H31.339M50.0508 38.4803C50.9778 38.4803 51.7324 39.1746 52.146 39.9134M52.4915 42.9842C52.4915 42.643 52.4915 41.7764 52.4915 41.0394C52.4915 40.7179 52.3677 40.3093 52.146 39.9134M52.4915 42.9842H39.8814L27.2712 42.9843M52.4915 42.9842C52.661 42.9842 53 43.1071 53 43.5984C53 44.0898 53 46.4646 53 47.5905C53 47.727 52.8983 48 52.4915 48C52.0847 48 51.983 47.727 51.983 47.5905V45.6457H39.8814L27.7797 45.6457V47.5906C27.7797 47.727 27.678 48 27.2712 48C26.8644 48 26.7627 47.727 26.7627 47.5906V43.5984C26.7627 43.1071 27.1017 42.9843 27.2712 42.9843M52.146 39.9134H39.8814L27.6167 39.9134M27.2712 42.9843V41.0394C27.2712 40.7179 27.395 40.3093 27.6167 39.9134M31.339 38.4803C31.339 38.3097 31.339 37.8661 31.339 37.4567C31.339 36.9449 31.6441 36.2283 32.5593 36.2283C33.2915 36.2283 34.4237 36.2283 35 36.2283H37.6441C38.5593 36.2283 38.8644 36.9449 38.8644 37.4567V38.4803M40.7966 38.4803C40.7966 38.3097 40.7966 37.8661 40.7966 37.4567C40.7966 36.9449 41.1017 36.2283 42.0169 36.2283C42.7492 36.2283 43.8814 36.2283 44.4576 36.2283H47.1017C48.0169 36.2283 48.322 36.9449 48.322 37.4567V38.4803M25.1356 46.7717H17M25.1356 46.7717V47.4882C25.1356 47.8976 24.8305 48 24.5254 48C24.2203 48 23.9153 47.8976 23.9153 47.4882C23.9153 47.1606 23.9153 46.874 23.9153 46.7717M25.1356 46.7717V43.2913M17 46.7717C17 46.874 17 47.1606 17 47.4882C17 47.8976 17.3051 48 17.6102 48C17.9153 48 18.2203 47.8976 18.2203 47.4882V46.7717M17 46.7717V43.2913M17 43.2913H25.1356M17 43.2913V39.9646M25.1356 43.2913V39.9646M17 39.9646V36.6378H19.8475M17 39.9646H25.1356M25.1356 39.9646V36.6378H22.1864M19.8475 38.4803H22.1864M19.8475 41.6535H22.1864M19.8475 44.8268H22.1864M20.9661 31.4173V35.9213M20.9661 31.4173H18.4237L19.7458 26.9134H20.9661H22.1864L23.5085 31.4173H22.4915M20.9661 31.4173H22.4915M20.9661 35.9213H19.8475V36.6378M20.9661 35.9213H22.1864V36.6378M19.8475 36.6378H22.1864M22.4915 31.4173V32.9528M22.4915 32.9528C22.2107 32.9528 21.9831 33.1819 21.9831 33.4646C21.9831 33.7472 22.2107 33.9764 22.4915 33.9764C22.7723 33.9764 23 33.7472 23 33.4646C23 33.1819 22.7723 32.9528 22.4915 32.9528ZM33.9831 28.6143C34.1445 28.7121 34.358 28.7559 34.5932 28.7559H39.9831M33.9831 28.6143C33.7954 28.5008 33.678 28.3144 33.678 28.0394C33.678 27.6299 33.678 26.0945 33.678 25.378V22.7165C33.678 22.2047 34.0847 22 34.5932 22L45.0678 22C45.5763 22 45.983 22.2047 45.983 22.7165V25.378C45.983 26.0945 45.983 27.6299 45.983 28.0394C45.983 28.2773 45.8952 28.4488 45.75 28.5643M33.9831 28.6143L37.0339 26.0945L38.5085 27.4252M39.9831 28.7559H45.0678C45.3399 28.7559 45.5829 28.6973 45.75 28.5643M39.9831 28.7559L38.5085 27.4252M38.5085 27.4252L41 25.0709L45.75 28.5643M39.678 24.252C39.678 24.8738 39.1771 25.378 38.5593 25.378C37.9415 25.378 37.4407 24.8738 37.4407 24.252C37.4407 23.6301 37.9415 23.126 38.5593 23.126C39.1771 23.126 39.678 23.6301 39.678 24.252Z" stroke="#F9F8FC"/>
</svg>
