<svg width="70" height="70" viewBox="0 0 70 70" fill="none" xmlns="http://www.w3.org/2000/svg">
<rect width="70" height="70" rx="35" fill="#9C91C5"/>
<path d="M23.3184 29.543C21.532 29.6354 20.1076 31.144 20.1074 32.9834V45.3857L20.1123 45.5625C20.2001 47.321 21.5895 48.7367 23.3184 48.8262L23.4922 48.8311H25.8174V51.5879H26.8174V48.8311H43.1836V51.5879H44.1836V48.8311H46.5098C48.3185 48.831 49.7999 47.3796 49.8906 45.5625L49.8945 45.3857V32.9834C49.8943 31.0847 48.3766 29.5382 46.5098 29.5381H23.4922L23.3184 29.543ZM46.5098 30.5381C47.8076 30.5382 48.8943 31.62 48.8945 32.9834V45.3857C48.8945 46.7493 47.8077 47.831 46.5098 47.8311H23.4922C22.1943 47.831 21.1075 46.7493 21.1074 45.3857V32.9834L21.1201 32.7314C21.2443 31.4891 22.2753 30.5382 23.4922 30.5381H46.5098ZM44.6738 32.3369V45.9697H45.6738V32.3369H44.6738ZM40.5771 45.9697H41.5771V32.3369H40.5771V45.9697ZM36.4873 45.9697H37.4873V32.3369H36.4873V45.9697ZM32.5166 45.9697H33.5166V32.3369H32.5166V45.9697ZM28.4238 45.9697H29.4238V32.3369H28.4238V45.9697ZM24.3311 45.9697H25.3311V32.3369H24.3311V45.9697ZM39.4766 18.5469C38.7167 19.7055 38.5184 20.7384 38.6172 21.666C38.7135 22.5696 39.0909 23.335 39.3857 23.9414V23.9434L39.584 24.3584C39.763 24.7461 39.882 25.0591 39.917 25.376C39.9594 25.761 39.8788 26.1993 39.4766 26.8145L39.416 26.9189C39.1389 27.4492 39.2973 28.1156 39.8008 28.458L40.0811 28.0449L40.3623 27.6309C40.2796 27.5743 40.2535 27.454 40.3125 27.3643L40.3135 27.3633C40.8143 26.5978 40.9843 25.9294 40.9111 25.2656C40.8592 24.7956 40.6848 24.3538 40.4873 23.9277L40.2861 23.5068L40.2852 23.5049V23.5039C39.9817 22.8799 39.6864 22.2642 39.6113 21.5596C39.5389 20.8788 39.67 20.0755 40.3125 19.0957L39.4766 18.5469ZM34.0195 18.5469C33.2596 19.7055 33.0614 20.7384 33.1602 21.666C33.2564 22.5696 33.6338 23.335 33.9287 23.9414V23.9434L34.127 24.3584C34.306 24.7461 34.425 25.0591 34.46 25.376C34.5023 25.761 34.4217 26.1994 34.0195 26.8145L33.959 26.9189C33.6819 27.4492 33.8402 28.1156 34.3438 28.458L34.624 28.0449L34.9053 27.6309C34.8226 27.5743 34.7964 27.454 34.8555 27.3643L34.8564 27.3633C35.3572 26.5979 35.5273 25.9294 35.4541 25.2656C35.4022 24.7956 35.2278 24.3538 35.0303 23.9277L34.8291 23.5068L34.8281 23.5049V23.5039C34.5247 22.8798 34.2293 22.2642 34.1543 21.5596C34.0819 20.8788 34.2129 20.0755 34.8555 19.0957L34.0195 18.5469ZM28.6787 18.5469C27.9188 19.7055 27.7206 20.7384 27.8193 21.666C27.9156 22.5696 28.293 23.335 28.5879 23.9414V23.9434L28.7861 24.3584C28.9652 24.7461 29.0842 25.0591 29.1191 25.376C29.1615 25.761 29.0809 26.1993 28.6787 26.8145L28.6182 26.9189C28.3411 27.4492 28.4994 28.1156 29.0029 28.458L29.2832 28.0449L29.5645 27.6309C29.4818 27.5743 29.4556 27.454 29.5146 27.3643L29.5156 27.3633C30.0164 26.5978 30.1865 25.9294 30.1133 25.2656C30.0614 24.7956 29.887 24.3538 29.6895 23.9277L29.4883 23.5068L29.4873 23.5049V23.5039C29.1838 22.8799 28.8885 22.2642 28.8135 21.5596C28.7411 20.8788 28.8721 20.0755 29.5146 19.0957L28.6787 18.5469Z" fill="#F9F8FC"/>
</svg>
